<?xml version="1.0" standalone="no"?><!DOCTYPE svg PUBLIC "-//W3C//DTD SVG 1.1//EN" "http://www.w3.org/Graphics/SVG/1.1/DTD/svg11.dtd"><svg t="1660626763835" class="icon" viewBox="0 0 1024 1024" version="1.1" xmlns="http://www.w3.org/2000/svg" p-id="2787" xmlns:xlink="http://www.w3.org/1999/xlink" width="20" height="20"><defs><style type="text/css">@font-face { font-family: "feedback-iconfont"; src: url("//at.alicdn.com/t/font_1031158_u69w8yhxdu.woff2?t=1630033759944") format("woff2"), url("//at.alicdn.com/t/font_1031158_u69w8yhxdu.woff?t=1630033759944") format("woff"), url("//at.alicdn.com/t/font_1031158_u69w8yhxdu.ttf?t=1630033759944") format("truetype"); }
</style></defs><path d="M508.98 916.64c-220.28 0-399.48-179.21-399.48-399.48s179.21-399.48 399.48-399.48c15.04 0 27.24 12.19 27.24 27.24 0 15.05-12.2 27.24-27.24 27.24-190.24 0-345.01 154.77-345.01 345.01s154.77 345.01 345.01 345.01S853.99 707.4 853.99 517.16c0-15.05 12.2-27.24 27.24-27.24s27.24 12.19 27.24 27.24c0 220.28-179.21 399.48-399.49 399.48z" fill="#f4b32e" p-id="2788" data-spm-anchor-id="a313x.7781069.0.i7" class="selected"></path><path d="M617.93 536.13h-81.71V486.2h81.71c14.98 0 27.24-12.26 27.24-27.24 0-14.98-12.26-27.24-27.24-27.24h-79.51l50.49-50.49c10.59-10.59 10.59-27.93 0-38.52-10.59-10.59-27.93-10.59-38.52 0l-41.41 41.41-41.41-41.41c-10.59-10.59-27.93-10.59-38.52 0-10.59 10.59-10.59 27.93 0 38.52l50.49 50.49h-79.51c-14.98 0-27.24 12.26-27.24 27.24 0 14.98 12.26 27.24 27.24 27.24h81.71v49.94h-81.71c-14.98 0-27.24 12.26-27.24 27.24 0 14.98 12.26 27.24 27.24 27.24h81.71v81.71c0 14.98 12.26 27.24 27.24 27.24 14.98 0 27.24-12.26 27.24-27.24v-81.71h81.71c14.98 0 27.24-12.26 27.24-27.24 0-14.99-12.26-27.25-27.24-27.25zM844.91 249.73h-124.9l32.88-32.88c10.59-10.59 10.59-27.93 0-38.52-10.59-10.59-27.93-10.59-38.52 0l-77.04 77.04c-5.89 5.89-8.38 13.86-7.72 21.6-0.66 7.74 1.83 15.71 7.72 21.6l77.04 77.04c10.59 10.59 27.93 10.59 38.52 0 10.59-10.59 10.59-27.93 0-38.52l-32.88-32.88h124.91c14.98 0 27.24-12.26 27.24-27.24-0.01-14.98-12.27-27.24-27.25-27.24z" fill="#f4b32e" p-id="2789" data-spm-anchor-id="a313x.7781069.0.i8" class="selected"></path></svg>