<?xml version="1.0" standalone="no"?><!DOCTYPE svg PUBLIC "-//W3C//DTD SVG 1.1//EN" "http://www.w3.org/Graphics/SVG/1.1/DTD/svg11.dtd"><svg t="1658562285630" class="icon" viewBox="0 0 1024 1024" version="1.1" xmlns="http://www.w3.org/2000/svg" p-id="1155" xmlns:xlink="http://www.w3.org/1999/xlink" width="200" height="200"><defs><style type="text/css">@font-face { font-family: feedback-iconfont; src: url("//at.alicdn.com/t/font_1031158_u69w8yhxdu.woff2?t=1630033759944") format("woff2"), url("//at.alicdn.com/t/font_1031158_u69w8yhxdu.woff?t=1630033759944") format("woff"), url("//at.alicdn.com/t/font_1031158_u69w8yhxdu.ttf?t=1630033759944") format("truetype"); }
</style></defs><path d="M758.08998 121.427724a42.013993 42.013993 0 1 0-78.199455 30.96407L845.639369 570.710305a269.569548 269.569548 0 0 1-501.253646 198.655757L172.20121 334.776236a182.991581 182.991581 0 1 1 339.997628-134.906202l172.305941 434.711254a96.413613 96.413613 0 0 1-127.741966 123.977706 95.563619 95.563619 0 0 1-51.363928-52.942487L390.771113 415.889956a42.013993 42.013993 0 0 0-77.713743-1.214277 41.649709 41.649709 0 0 0 0 32.178347L427.199431 736.580576a180.563026 180.563026 0 0 0 335.747658-132.963358l-172.184513-434.711253A267.140994 267.140994 0 0 0 93.880327 365.740306l172.305941 434.711253a353.718961 353.718961 0 0 0 657.773983-260.705324z" fill="#4D4D4D" p-id="1156"></path></svg>