<?xml version="1.0" standalone="no"?><!DOCTYPE svg PUBLIC "-//W3C//DTD SVG 1.1//EN" "http://www.w3.org/Graphics/SVG/1.1/DTD/svg11.dtd"><svg t="1660626824964" class="icon" viewBox="0 0 1024 1024" version="1.1" xmlns="http://www.w3.org/2000/svg" p-id="3861" xmlns:xlink="http://www.w3.org/1999/xlink" width="20" height="20"><defs><style type="text/css">@font-face { font-family: "feedback-iconfont"; src: url("//at.alicdn.com/t/font_1031158_u69w8yhxdu.woff2?t=1630033759944") format("woff2"), url("//at.alicdn.com/t/font_1031158_u69w8yhxdu.woff?t=1630033759944") format("woff"), url("//at.alicdn.com/t/font_1031158_u69w8yhxdu.ttf?t=1630033759944") format("truetype"); }
</style></defs><path d="M611.84 532.48H532.48V481.28h79.36c11.3152 0 20.48-9.1648 20.48-20.48s-9.1648-20.48-20.48-20.48h-62.2592l64.4608-64.4608a20.52096 20.52096 0 0 0 0-28.9792 20.52096 20.52096 0 0 0-28.9792 0l-72.7552 72.7552c-0.1536 0.1536-0.2048 0.3072-0.3584 0.4096a1.3824 1.3824 0 0 0-0.3584-0.4096l-72.704-72.7552a20.52096 20.52096 0 0 0-28.9792 0 20.52096 20.52096 0 0 0 0 28.9792L474.4192 440.32H412.16c-11.3152 0-20.48 9.1648-20.48 20.48s9.1648 20.48 20.48 20.48H491.52v51.2H412.16c-11.3152 0-20.48 9.1648-20.48 20.48s9.1648 20.48 20.48 20.48H491.52v128c0 11.3152 9.1648 20.48 20.48 20.48s20.48-9.1648 20.48-20.48v-128h79.36c11.3152 0 20.48-9.1648 20.48-20.48s-9.1648-20.48-20.48-20.48zM928.5632 495.1552L863.5392 430.08a20.52096 20.52096 0 0 0-28.9792 0 20.52096 20.52096 0 0 0 0 28.9792l32.4608 32.4608h-110.5408c-10.5984 0-19.2 8.6016-19.2 19.2v2.56c0 10.5984 8.6016 19.2 19.2 19.2h107.3152l-29.2352 29.2352a20.52096 20.52096 0 0 0 0 28.9792 20.52096 20.52096 0 0 0 28.9792 0l65.0752-65.0752c4.1984-4.1984 6.144-9.728 5.9392-15.2064a20.5824 20.5824 0 0 0-5.9904-15.2576z" fill="#2db970" p-id="3862" data-spm-anchor-id="a313x.7781069.0.i13" class="selected"></path><path d="M830.976 716.1856C763.5456 821.1968 645.7856 890.88 512 890.88c-208.5376 0-379.4432-171.3664-378.88-379.8528C133.6832 302.5408 303.4112 133.12 512 133.12c131.6864 0 247.9104 67.5328 315.8016 169.8304 3.84 5.7856 10.1888 9.3696 17.1008 9.3696h0.3584c16.2816 0 25.9584-18.176 16.9472-31.744-78.2336-117.9136-214.3744-194.2528-367.4624-188.0576-215.0912 8.704-390.5024 181.7088-401.9712 396.6976C79.9232 730.9824 272.9472 931.84 512 931.84c148.2752 0 278.9376-77.312 353.5872-193.792 8.704-13.6192-0.9216-31.488-17.1008-31.488h-0.256c-6.9632 0-13.4144 3.6864-17.2544 9.6256z" fill="#2db970" p-id="3863" data-spm-anchor-id="a313x.7781069.0.i14" class="selected"></path></svg>